<?xml version="1.0" encoding="utf-8"?>
<!-- Generator: Adobe Illustrator 27.2.0, SVG Export Plug-In . SVG Version: 6.00 Build 0)  -->
<svg version="1.1" id="Layer_1" xmlns="http://www.w3.org/2000/svg" xmlns:xlink="http://www.w3.org/1999/xlink" x="0px" y="0px"
	 viewBox="0 0 64 64" style="enable-background:new 0 0 64 64;" xml:space="preserve">
<style type="text/css">
	.st0{fill:#445566;}
	.st1{fill:#98C37B;}
</style>
<path class="st0" d="M55.6,64H8.4C3.8,64,0,60.2,0,55.6V8.4C0,3.8,3.8,0,8.4,0h47.2C60.2,0,64,3.8,64,8.4v47.2
	C64,60.2,60.2,64,55.6,64z"/>
<g>
	<path class="st1" d="M24.2,53.9c5.5-0.3,11.2-1,16.6-2.1c3.9-0.9,7.7-1.8,11-3.9c0.9-0.6,1.7-1.3,2.1-1.9c0.8-1.2,0.2-3-0.3-3.9
		c-1-1.3-2.9-1.6-4.6-1.9c-2.4-0.3-5-0.3-7.8-0.3C30.8,40,19.3,41.2,10,35c-4-3-7.1-6.3-7.7-11.7C1.7,8.7,21.7,3.7,33.1,5.4
		C37.5,6,46.4,11,41.3,15.9c-0.5,0.4-1.2,0.6-1.9,0.8c-3.9,1.1-7.3,0.9-11.2,0.7c-3.4-0.1-7.1,0.5-10.2,1.7
		c-1.7,0.7-3.8,1.8-4.4,3.4c0,1,1.4,2.6,2.2,3.3c2.5,2.2,5.5,3,9,3.7c5.3,0.9,10.9,0.9,16.4,1.2c4.6,0.3,9.8,0.5,14.3,2.9
		c5.9,2.7,8.2,11.8,3.9,16.7c-4.6,5.1-11.6,6-17.9,6.8c-5.9,0.5-11.7,0.5-17.5,0C22.2,56.8,22.3,53.9,24.2,53.9L24.2,53.9z"/>
</g>
</svg>
